Coordinates
version=1
nRows=36
nColumns=30
inDegrees=yes

Units are S.I. units (second, meters, Newtons, ...)
Angles are in degrees.

endheader
time	floatyaw	floatroll	floatpitch	floatx	floaty	floatz	pro_sup_l	deviation_l	flexion_l	cmc_flexion_l	cmc_abduction_l	mp_flexion_l	ip_flexion_l	2mcp_flexion_l	2mcp_abduction_l	2pm_flexion_l	2md_flexion_l	3mcp_flexion_l	3mcp_abduction_l	3pm_flexion_l	3md_flexion_l	4mcp_flexion_l	4mcp_abduction_l	4pm_flexion_l	4md_flexion_l	5mcp_flexion_l	5mcp_abduction_l	5pm_flexion_l	5md_flexion_l
0.005000	-0.679314	-3.115271	87.889519	0.165598	-0.239359	0.183086	120.347678	22.928554	15.467483	2.834077	35.793617	-18.922911	-34.093523	46.800802	9.754947	46.780950	43.895261	38.860331	5.169499	57.788105	48.973445	43.958001	-4.814384	77.570011	52.955138	29.492208	-10.731127	69.475798	48.409098
0.015000	-0.679314	-3.115271	87.889519	0.164857	-0.238799	0.182691	120.067138	22.622299	15.182955	3.648288	36.172378	-19.105318	-36.424802	46.511926	9.756672	47.130916	45.034990	38.413771	5.164440	58.509218	49.976750	43.371596	-4.870199	78.442529	53.819765	28.937853	-10.766640	69.869870	49.178562
0.025000	-0.679314	-3.115271	87.889519	0.164114	-0.238281	0.182325	119.818657	22.308376	14.905835	4.382810	36.521481	-19.228890	-38.660228	46.203544	9.773786	47.496454	46.107676	37.973431	5.165181	59.175849	50.942053	42.806760	-4.922597	79.266009	54.623464	28.416014	-10.794790	70.219811	49.893262
0.035000	-0.679314	-3.115271	87.889519	0.163400	-0.237797	0.181994	119.608768	21.994489	14.648640	5.020114	36.826068	-19.306051	-40.712211	45.888672	9.802857	47.884499	47.063229	37.554918	5.167539	59.776128	51.823112	42.279373	-4.971670	80.028163	55.351298	27.942988	-10.817514	70.530522	50.521066
0.045000	-0.679314	-3.115271	87.889519	0.162744	-0.237349	0.181696	119.437434	21.688418	14.426177	5.552039	37.078335	-19.352187	-42.509606	45.570600	9.840737	48.300474	47.859341	37.164229	5.169580	60.310651	52.579040	41.799832	-5.017930	80.718629	55.990489	27.527093	-10.839156	70.801914	51.039628
0.055000	-0.679314	-3.115271	87.889519	0.162166	-0.236948	0.181420	119.294758	21.395979	14.251145	5.978238	37.277045	-19.378311	-44.010514	45.250699	9.885057	48.737337	48.475101	36.803527	5.171438	60.782330	53.187437	41.373650	-5.061859	81.327619	56.534419	27.170941	-10.863111	71.025411	51.445408
0.065000	-0.679314	-3.115271	87.889519	0.161670	-0.236609	0.181145	119.163633	21.121323	14.129141	6.302955	37.424960	-19.385091	-45.205219	44.937305	9.933820	49.167278	48.920208	36.478356	5.174770	61.186245	53.652075	41.004175	-5.103452	81.845020	56.985831	26.874385	-10.889251	71.187492	51.757549
0.075000	-0.679314	-3.115271	87.889519	0.161253	-0.236342	0.180854	119.027622	20.868535	14.055795	6.532788	37.526439	-19.362825	-46.110429	44.649912	9.984609	49.542930	49.232906	36.201166	5.181979	61.506700	54.000897	40.695561	-5.141991	82.261246	57.356904	26.636267	-10.913680	71.278109	52.011383
0.085000	-0.679314	-3.115271	87.889519	0.160899	-0.236149	0.180540	118.879263	20.642384	14.018015	6.677411	37.587539	-19.298803	-46.761070	44.414802	10.034230	49.812612	49.464968	35.987999	5.195207	61.725111	54.274162	40.453046	-5.176259	82.571274	57.665365	26.453518	-10.930984	71.299893	52.242959
0.095000	-0.679314	-3.115271	87.889519	0.160594	-0.236023	0.180216	118.723488	20.447201	13.998892	6.752493	37.618345	-19.188513	-47.204206	44.253355	10.079221	49.945950	49.659130	35.849751	5.215217	61.835293	54.507458	40.279402	-5.205111	82.780922	57.927766	26.318605	-10.937605	71.273543	52.472647
0.105000	-0.679314	-3.115271	87.889519	0.160327	-0.235949	0.179912	118.574433	20.285001	13.983799	6.781431	37.634588	-19.043826	-47.494127	44.169754	10.116835	49.956453	49.829904	35.783714	5.240600	61.856390	54.717585	40.170030	-5.228011	82.911064	58.152822	26.218776	-10.934221	71.235584	52.696994
0.115000	-0.679314	-3.115271	87.889519	0.160096	-0.235913	0.179661	118.448166	20.154724	13.964895	6.792584	37.655802	-18.892223	-47.685434	44.146427	10.145760	49.905081	49.958709	35.771692	5.267784	61.833227	54.898905	40.111289	-5.245267	82.994913	58.338531	26.139655	-10.925748	71.227507	52.892742
0.125000	-0.679314	-3.115271	87.889519	0.159909	-0.235901	0.179487	118.355656	20.053207	13.942227	6.811751	37.699910	-18.766166	-47.824282	44.151227	10.166162	49.878194	50.007396	35.786987	5.291998	61.820731	55.032764	40.084516	-5.258005	83.067231	58.475647	26.071678	-10.919030	71.279406	53.029999
0.135000	-0.679314	-3.115271	87.889519	0.159777	-0.235902	0.179399	118.299227	19.976810	13.921075	6.853460	37.776559	-18.688033	-47.941593	44.152523	10.179156	49.948932	49.943945	35.806210	5.308870	61.859567	55.104885	40.073301	-5.267963	83.150312	58.556718	26.014549	-10.919486	71.394940	53.087567
0.145000	-0.679314	-3.115271	87.889519	0.159707	-0.235907	0.179386	118.273241	19.922090	13.906917	6.916279	37.882509	-18.659591	-48.051368	44.133087	10.186173	50.142424	49.766337	35.818112	5.316066	61.957243	55.119738	40.068497	-5.277024	83.245178	58.585703	25.975745	-10.928323	71.545737	53.063824
0.155000	-0.679314	-3.115271	87.889519	0.159691	-0.235910	0.179424	118.267473	19.884935	13.900973	6.985461	38.002113	-18.662623	-48.154148	44.094778	10.188617	50.424653	49.510452	35.823816	5.314258	62.087004	55.101898	40.067404	-5.286596	83.334360	58.581483	25.963413	-10.941694	71.680576	52.979234
0.165000	-0.679314	-3.115271	87.889519	0.159706	-0.235909	0.179483	118.270771	19.859112	13.899129	7.041790	38.113985	-18.670026	-48.243535	44.052624	10.187990	50.721607	49.236726	35.829685	5.306937	62.205561	55.083305	40.068857	-5.297160	83.395127	58.571939	25.978426	-10.952383	71.747161	52.869814
0.175000	-0.679314	-3.115271	87.889519	0.159720	-0.235904	0.179538	118.273661	19.836069	13.894781	7.071436	38.200871	-18.659725	-48.313064	44.023725	10.186136	50.956922	49.003991	35.839516	5.299041	62.277791	55.086043	40.069314	-5.308287	83.414329	58.581955	26.011437	-10.953253	71.715551	52.774408
0.185000	-0.679314	-3.115271	87.889519	0.159708	-0.235899	0.179574	118.269953	19.807025	13.883185	7.071204	38.256844	-18.622805	-48.360561	44.018409	10.185170	51.085208	48.847194	35.852121	5.294957	62.292337	55.113452	40.063403	-5.319011	83.394978	58.623356	26.047249	-10.940603	71.589786	52.721396
0.195000	-0.679314	-3.115271	87.889519	0.159661	-0.235895	0.179591	118.257618	19.766377	13.863992	7.047262	38.287509	-18.562858	-48.387991	44.037527	10.186837	51.103817	48.770858	35.864407	5.296849	62.260625	55.154612	40.047534	-5.328239	83.351734	58.692833	26.072993	-10.915616	71.401815	52.720564
0.205000	-0.679314	-3.115271	87.889519	0.159587	-0.235894	0.179597	118.238589	19.714065	13.840572	7.009956	38.303927	-18.490426	-48.397257	44.074478	10.191627	51.042741	48.756869	35.875032	5.304143	62.204854	55.195723	40.022202	-5.335041	83.301092	58.777288	26.083542	-10.883367	71.194030	52.762638
0.215000	-0.679314	-3.115271	87.889519	0.159500	-0.235890	0.179600	118.217030	19.655185	13.817565	6.969017	38.315148	-18.418200	-48.385482	44.118530	10.198170	50.945026	48.776921	35.884495	5.314276	62.146188	55.228038	39.990578	-5.338910	83.254335	58.861290	26.080418	-10.850372	71.002812	52.825148
0.225000	-0.679314	-3.115271	87.889519	0.159415	-0.235881	0.179605	118.196617	19.597174	13.798850	6.931434	38.324419	-18.358976	-48.344196	44.157924	10.203430	50.849809	48.802630	35.892437	5.324111	62.099562	55.248144	39.955356	-5.339985	83.216511	58.932187	26.066408	-10.822211	70.851333	52.881703
0.235000	-0.679314	-3.115271	87.889519	0.159340	-0.235863	0.179611	118.178362	19.546420	13.786800	6.901491	38.330620	-18.324295	-48.264127	44.183107	10.203849	50.782511	48.812530	35.895903	5.331171	62.073801	55.254393	39.917435	-5.339060	83.189084	58.982010	26.041088	-10.802198	70.750986	52.911715
0.245000	-0.679314	-3.115271	87.889519	0.159277	-0.235836	0.179612	118.160325	19.506045	13.782108	6.881198	38.332546	-18.321305	-48.143037	44.189928	10.197095	50.751724	48.796521	35.890737	5.334254	62.072841	55.244995	39.877431	-5.337251	83.172562	59.007422	26.000440	-10.791199	70.705761	52.907183
0.255000	-0.679314	-3.115271	87.889519	0.159222	-0.235804	0.179603	118.139188	19.475448	13.783430	6.870227	38.332391	-18.348410	-47.991706	44.181338	10.183501	50.751458	48.756391	35.874937	5.333463	62.095801	55.219383	39.837783	-5.335456	83.167387	59.008932	25.940125	-10.788125	70.714749	52.873169
0.265000	-0.679314	-3.115271	87.889519	0.159171	-0.235772	0.179578	118.112403	19.451185	13.787033	6.865759	38.336142	-18.393177	-47.833754	44.166351	10.166236	50.767026	48.701670	35.851232	5.329879	62.136383	55.180570	39.802854	-5.334015	83.173332	58.990235	25.859986	-10.790541	70.771414	52.821437
0.275000	-0.679314	-3.115271	87.889519	0.159119	-0.235746	0.179541	118.079475	19.428538	13.787398	6.863121	38.350907	-18.435735	-47.697954	44.156515	10.149844	50.781904	48.643446	35.826962	5.325054	62.183172	55.135765	39.776630	-5.332832	83.188344	58.958159	25.766972	-10.795127	70.861449	52.761798
0.285000	-0.679314	-3.115271	87.889519	0.159061	-0.235730	0.179494	118.041863	19.403212	13.779230	6.857404	38.380918	-18.457166	-47.606210	44.161487	10.137908	50.782699	48.590494	35.811137	5.320446	62.221861	55.094859	39.759866	-5.331846	83.207805	58.922943	25.674412	-10.798133	70.962252	52.698272
0.295000	-0.679314	-3.115271	87.889519	0.158993	-0.235724	0.179444	118.002040	19.372667	13.759945	6.845255	38.424545	-18.448052	-47.563923	44.185855	10.131284	50.760452	48.550110	35.810380	5.317016	62.238783	55.068519	39.748999	-5.331352	83.224912	58.897718	25.597724	-10.796078	71.045887	52.633519
0.305000	-0.679314	-3.115271	87.889519	0.158916	-0.235728	0.179396	117.962553	19.336731	13.730993	6.825707	38.473980	-18.411670	-47.558551	44.228707	10.127969	50.708534	48.532143	35.826144	5.315125	62.224121	55.067311	39.737718	-5.331814	83.232133	58.896198	25.548978	-10.786638	71.084915	52.577323
0.315000	-0.679314	-3.115271	87.889519	0.158833	-0.235735	0.179355	117.925485	19.297351	13.697155	6.799585	38.517746	-18.360182	-47.566785	44.285614	10.124498	50.619976	48.551557	35.854637	5.314650	62.173739	55.100965	39.720114	-5.333287	83.223223	58.928678	25.533051	-10.769287	71.059145	52.550168
0.325000	-0.679314	-3.115271	87.889519	0.158748	-0.235742	0.179322	117.892164	19.257640	13.664409	6.768193	38.544949	-18.307350	-47.565162	44.350962	10.117801	50.488342	48.624703	35.888993	5.315148	62.090013	55.175416	39.693395	-5.335007	83.195232	58.997674	25.546412	-10.745396	70.961779	52.576041
0.335000	-0.679314	-3.115271	87.889519	0.158668	-0.235744	0.179297	117.862859	19.220659	13.637705	6.732680	38.549602	-18.263186	-47.537923	44.418785	10.106473	50.313796	48.758579	35.921918	5.315993	61.982556	55.286996	39.658734	-5.335580	83.150152	59.095109	25.578156	-10.717868	70.803564	52.667241
0.345000	-0.679314	-3.115271	87.889519	0.158597	-0.235738	0.179278	117.836591	19.188461	13.619656	6.694658	38.533281	-18.233079	-47.479528	44.482292	10.091043	50.110492	48.939119	35.947503	5.316545	61.868157	55.417335	39.620236	-5.333667	83.095468	59.202914	25.612972	-10.690461	70.612386	52.811338
0.355000	-0.679314	-3.115271	87.889519	0.158535	-0.235727	0.179260	117.811486	19.161780	13.610266	6.657098	38.504729	-18.219277	-47.393632	44.534247	10.073487	49.907499	49.128890	35.962456	5.316332	61.767454	55.535206	39.583108	-5.328692	83.042500	59.298089	25.636172	-10.666734	70.425463	52.970545
